<svg width="20" height="12" viewBox="0 0 20 12" fill="none" xmlns="http://www.w3.org/2000/svg">
<path d="M18.9375 2.60938L10.875 0.140625C10.2812 -0.046875 9.6875 -0.046875 9.09375 0.140625L1.03125 2.60938C0.40625 2.82812 0 3.35938 0 4.01562C0 4.64062 0.40625 5.17188 1.03125 5.39062L1.71875 5.60938C1.65625 5.76562 1.59375 5.92188 1.5625 6.10938C1.21875 6.26562 1 6.60938 1 7.01562C1 7.32812 1.15625 7.60938 1.40625 7.79688L0.625 11.3906C0.5625 11.7031 0.78125 11.9844 1.09375 11.9844H2.875C3.1875 11.9844 3.40625 11.7031 3.34375 11.3906L2.5625 7.79688C2.8125 7.60938 3 7.32812 3 7.01562C3 6.67188 2.8125 6.39062 2.5625 6.20312C2.59375 6.10938 2.65625 5.98438 2.71875 5.89062L4.4375 6.42188L4 9.98438C4 11.1094 6.65625 11.9844 10 11.9844C13.3125 11.9844 16 11.1094 16 9.98438L15.5312 6.42188L18.9375 5.39062C19.5625 5.17188 20 4.64062 20 4.01562C20 3.35938 19.5625 2.82812 18.9375 2.60938ZM14.4375 9.70312C12.5625 10.7656 7.375 10.7656 5.53125 9.70312L5.875 6.89062L9.09375 7.85938C9.4375 7.98438 10.0938 8.10938 10.875 7.85938L14.0938 6.89062L14.4375 9.70312ZM10.4375 6.42188C10.1562 6.51562 9.8125 6.51562 9.53125 6.42188L4.8125 4.98438L10.0625 3.98438C10.3438 3.95312 10.5312 3.67188 10.4688 3.42188C10.4375 3.14062 10.1562 2.95312 9.90625 3.01562L3.53125 4.20312C3.3125 4.23438 3.125 4.32812 2.9375 4.39062L1.65625 3.98438L9.53125 1.57812C9.8125 1.48438 10.1562 1.48438 10.4375 1.57812L18.3125 4.01562L10.4375 6.42188Z" fill="#0A2341"/>
</svg>
