<svg width="20" height="21" viewBox="0 0 20 21" fill="none" xmlns="http://www.w3.org/2000/svg">
<path d="M18.5714 0H1.38393C0.625 0 0 0.703125 0 1.54688V19.5C0 20.3438 0.625 21 1.38393 21H18.5714C19.3304 21 20 20.3438 20 19.5V1.54688C20 0.703125 19.3304 0 18.5714 0ZM6.02679 18H3.08036V8.01562H6.02679V18ZM4.55357 6.60938C3.57143 6.60938 2.8125 5.8125 2.8125 4.82812C2.8125 3.84375 3.57143 3 4.55357 3C5.49107 3 6.25 3.84375 6.25 4.82812C6.25 5.8125 5.49107 6.60938 4.55357 6.60938ZM17.1429 18H14.1518V13.125C14.1518 12 14.1518 10.5 12.6339 10.5C11.0714 10.5 10.8482 11.7656 10.8482 13.0781V18H7.90179V8.01562H10.7143V9.375H10.7589C11.1607 8.57812 12.1429 7.73438 13.5714 7.73438C16.5625 7.73438 17.1429 9.84375 17.1429 12.5156V18Z" fill="#0A2341"/>
</svg>
